# xmcd CD database file
#
# Track frame offsets:
#	150
#	13373
#	30161
#	50848
#	68276
#	79141
#	98426
#	108238
#	130766
#	159243
#
# Disc length: 2336 seconds
#
# Revision: 0
# Processed by: cddbd v1.5.1PL0 Copyright (c) Steve Scherf et al.
# Submitted via: CDex 1.51
#
DISCID=6b091e0a
DTITLE=秋之陣 - 放課後ライブハウス
DYEAR=1900
DGENRE=Rock
TTITLE0=UZUMAKI - KNOCKOUT
TTITLE1=ELLEGARDEN - Supernove
TTITLE2=THE　BOOGIE　JACK - 左手の恋人
TTITLE3=SHACHI - 孤高の花
TTITLE4=STANCE　PANKS - １２＆３４
TTITLE5=CHANGE　UP - END OF SUMMER
TTITLE6=中部TRACK - ｸﾞﾘｰﾝｸﾞﾘｰﾝ
TTITLE7=Hi-TOUCH Rookies - DAYS
TTITLE8=MUSHA×KUSHA - バサラ
TTITLE9=SA - GET　UP！　WARRIORS
EXTD=
EXTT0=
EXTT1=
EXTT2=
EXTT3=
EXTT4=
EXTT5=
EXTT6=
EXTT7=
EXTT8=
EXTT9=
PLAYORDER=
